<svg xmlns="http://www.w3.org/2000/svg" width="46" height="55" fill="none"><g clip-path="url(#a)" filter="url(#b)"><path fill="#E13C72" d="M33 11c0 5.523-4.477 10-10 10s-10-4.477-10-10S17.477 1 23 1s10 4.478 10 10Z"/><path fill="#E94E7D" d="M33 27c0 5.522-4.477 10-10 10s-10-4.478-10-10c0-5.523 4.477-10 10-10s10 4.477 10 10Z"/><path fill="#E13C72" d="M15 8.999c5.523 0 10 4.477 10 10s-4.477 10-10 10S5 24.522 5 19 9.477 9 15 9Z"/><path fill="#E94E7D" d="M31 8.999c5.522 0 10 4.477 10 10s-4.478 10-10 10c-5.523 0-10-4.477-10-10S25.477 9 31 9Z"/><path fill="#D33F79" d="M33.836 28.59c.159-.924.183-1.888.063-2.869-.667-5.442-5.587-9.321-11.022-8.718.042 0 .081-.003.123-.003C28.524 17 33 21.48 33 27c0 .624-.057 1.235-.167 1.828l1.003-.237Z"/><path fill="#C6376F" d="M32.826 9.164c-.59-.109-1.2-.165-1.825-.165C25.477 8.999 21 13.477 21 19c0 .039.004.081.004.123-.6-5.435 3.279-10.358 8.717-11.025a9.85 9.85 0 0 1 2.87.063l.236 1.002Z"/><path fill="#C6376F" d="M13.167 9.172C13.057 9.764 13 10.375 13 11A9.997 9.997 0 0 0 23 20.999h.123c-5.435.6-10.355-3.28-11.022-8.722a9.865 9.865 0 0 1 .063-2.869l1.003-.236Z"/><path fill="#D33F79" d="M13.41 29.836a9.85 9.85 0 0 0 2.87.063c5.438-.667 9.317-5.59 8.717-11.022 0 .039.004.081.004.124C25 24.52 20.522 29 14.998 29c-.625 0-1.235-.057-1.824-.166l.236 1.002Z"/><path fill="#F4C09B" d="M28.177 19a5.177 5.177 0 1 1-10.353 0 5.177 5.177 0 0 1 10.353 0Z"/><path fill="#E8AE74" d="M26.351 15.06a5.152 5.152 0 0 1 1.236 3.352 5.176 5.176 0 0 1-5.176 5.176c-1.28 0-2.45-.466-3.352-1.236a5.164 5.164 0 0 0 3.94 1.824A5.177 5.177 0 0 0 28.176 19c0-1.58-.71-2.99-1.825-3.94Z"/></g><defs><clipPath id="a"><path fill="#fff" d="M5 1h36v36H5z"/></clipPath><filter id="b" width="46" height="55" x="0" y="0" color-interpolation-filters="sRGB" filterUnits="userSpaceOnUse"><feFlood flood-opacity="0" result="BackgroundImageFix"/><feColorMatrix in="SourceAlpha" result="hardAlpha" values="0 0 0 0 0 0 0 0 0 0 0 0 0 0 0 0 0 0 127 0"/><feOffset dy="1"/><feGaussianBlur stdDeviation="1"/><feColorMatrix values="0 0 0 0 0.211538 0 0 0 0 0.211538 0 0 0 0 0.211538 0 0 0 0.05 0"/><feBlend in2="BackgroundImageFix" result="effect1_dropShadow_497_8528"/><feColorMatrix in="SourceAlpha" result="hardAlpha" values="0 0 0 0 0 0 0 0 0 0 0 0 0 0 0 0 0 0 127 0"/><feOffset dy="3"/><feGaussianBlur stdDeviation="1.5"/><feColorMatrix values="0 0 0 0 0.293269 0 0 0 0 0.293269 0 0 0 0 0.293269 0 0 0 0.04 0"/><feBlend in2="effect1_dropShadow_497_8528" result="effect2_dropShadow_497_8528"/><feColorMatrix in="SourceAlpha" result="hardAlpha" values="0 0 0 0 0 0 0 0 0 0 0 0 0 0 0 0 0 0 127 0"/><feOffset dy="7"/><feGaussianBlur stdDeviation="2"/><feColorMatrix values="0 0 0 0 0.538462 0 0 0 0 0.538462 0 0 0 0 0.538462 0 0 0 0.03 0"/><feBlend in2="effect2_dropShadow_497_8528" result="effect3_dropShadow_497_8528"/><feColorMatrix in="SourceAlpha" result="hardAlpha" values="0 0 0 0 0 0 0 0 0 0 0 0 0 0 0 0 0 0 127 0"/><feOffset dy="13"/><feGaussianBlur stdDeviation="2.5"/><feColorMatrix values="0 0 0 0 0.745192 0 0 0 0 0.745192 0 0 0 0 0.745192 0 0 0 0.01 0"/><feBlend in2="effect3_dropShadow_497_8528" result="effect4_dropShadow_497_8528"/><feBlend in="SourceGraphic" in2="effect4_dropShadow_497_8528" result="shape"/></filter></defs></svg>