<svg xmlns="http://www.w3.org/2000/svg" width="43" height="52" fill="none"><g filter="url(#a)"><path fill="#FFB578" d="M36.582 17.886a15.131 15.131 0 0 1-3.282 9.602h-.001l-5.564-1.087-2.22-2.457 2.496-7.675 4.325-.647 4.246 2.264Z"/><path fill="#5FCEFF" d="m36.582 17.885-4.246-2.264 2.361-4.866a15.025 15.025 0 0 1 1.885 7.13Z"/><path fill="#FFB578" d="m34.698 10.755-2.361 4.866-4.325.648-6.608-4.74V8.254l.033-.026 5.286-4.3.012-.034a15.056 15.056 0 0 1 6.69 4.927c.48.62.904 1.266 1.273 1.933Z"/><path fill="#5FCEFF" d="M33.298 27.488h.002a15.115 15.115 0 0 1-2.592 2.552 15.085 15.085 0 0 1-3.69 2.102l.717-5.741 5.563 1.087ZM28.01 16.269l-2.495 7.674H17.45l-2.495-7.674 6.448-4.74 6.607 4.74Z"/><path fill="#FFB578" d="m25.516 23.943 2.22 2.458-.717 5.741a15.147 15.147 0 0 1-10.683.164l-.738-5.905 1.853-2.458h8.065Z"/><path fill="#5FCEFF" d="m26.734 3.895-.013.033-5.285 4.302-.033.025-5.317-4.327a15.168 15.168 0 0 1 10.648-.033Z"/><path fill="#FFB578" d="M21.403 8.256v3.273l-6.448 4.74-3.959-.647-2.391-4.93-.285-.126a15.1 15.1 0 0 1 3.887-4.46 15.11 15.11 0 0 1 3.878-2.177l5.318 4.327Z"/><path fill="#FFB578" d="m14.956 16.27 2.495 7.674-1.853 2.457-5.921 1.157a15.056 15.056 0 0 1-3.345-9.449h.001l4.664-2.487 3.959.647Z"/><path fill="#5FCEFF" d="m15.598 26.401.738 5.905a15.043 15.043 0 0 1-6.66-4.748l5.922-1.157ZM6.332 18.11a15.182 15.182 0 0 1 1.99-7.543l.284.125 2.391 4.93-4.664 2.488h-.001Z"/><path fill="#4F46A3" d="M21.468 33.986a15.933 15.933 0 0 1-5.398-.94 15.864 15.864 0 0 1-7.202-5.242 15.76 15.76 0 0 1-3.323-9.693 15.977 15.977 0 0 1 2.093-7.934c1.04-1.82 2.415-3.4 4.088-4.694a15.819 15.819 0 0 1 9.72-3.323c1.907 0 3.778.336 5.562.998a15.874 15.874 0 0 1 7.04 5.183 15.878 15.878 0 0 1 3.321 9.536 15.953 15.953 0 0 1-3.454 10.101 15.923 15.923 0 0 1-2.726 2.685 15.876 15.876 0 0 1-9.72 3.323Zm-.021-30.252a14.25 14.25 0 0 0-8.758 2.994 14.273 14.273 0 0 0-3.685 4.229 14.402 14.402 0 0 0-1.886 7.15 14.197 14.197 0 0 0 3.17 8.956 14.294 14.294 0 0 0 6.313 4.503 14.367 14.367 0 0 0 10.128-.155 14.314 14.314 0 0 0 3.498-1.993 14.35 14.35 0 0 0 2.457-2.42 14.378 14.378 0 0 0 3.111-9.103 14.301 14.301 0 0 0-2.993-8.591 14.303 14.303 0 0 0-6.342-4.671 14.368 14.368 0 0 0-5.013-.9Z"/><path fill="#4F46A3" d="M25.515 24.73H17.45a.787.787 0 0 1-.748-.544l-2.496-7.674a.787.787 0 0 1 .283-.877l6.447-4.74a.786.786 0 0 1 .925-.006l6.607 4.74a.786.786 0 0 1 .29.883l-2.495 7.674a.786.786 0 0 1-.748.544Zm-7.494-1.574h6.922l2.14-6.583-5.675-4.072-5.53 4.065 2.143 6.59Zm3.381-14.114a.783.783 0 0 1-.496-.176l-5.305-4.317a.784.784 0 0 1-.303-.62.786.786 0 0 1 1.284-.61l5.317 4.326a.787.787 0 0 1-.497 1.397Zm-15.07 9.854a.787.787 0 0 1-.37-1.482l3.996-2.13-2.061-4.25a.787.787 0 0 1 1.415-.687l2.392 4.931a.787.787 0 0 1-.338 1.038l-4.664 2.487a.784.784 0 0 1-.37.093Zm10.002 14.197a.787.787 0 0 1-.78-.69l-.634-5.068-5.094.995a.787.787 0 1 1-.301-1.545l5.92-1.156a.789.789 0 0 1 .932.674l.738 5.905a.787.787 0 0 1-.781.885ZM36.58 18.672a.785.785 0 0 1-.37-.093l-4.245-2.263a.787.787 0 0 1-.338-1.038l2.356-4.856a.785.785 0 0 1 1.463.571l-.001.004a.808.808 0 0 1-.04.101l-2.032 4.186 3.578 1.907a.787.787 0 0 1-.37 1.48Zm-9.562 14.257a.786.786 0 0 1-.781-.885l.717-5.74a.788.788 0 0 1 .932-.675l5.563 1.087a.787.787 0 0 1-.302 1.544l-4.736-.925-.611 4.894a.788.788 0 0 1-.782.7Z"/><path fill="#4F46A3" d="M21.404 12.315a.787.787 0 0 1-.787-.787V8.255a.787.787 0 0 1 1.574 0v3.273a.788.788 0 0 1-.787.787Zm6.607 4.74a.787.787 0 0 1-.116-1.564l4.325-.647a.787.787 0 0 1 .233 1.556l-4.325.647a.792.792 0 0 1-.117.009Zm-.274 10.133a.786.786 0 0 1-.585-.26l-2.22-2.458a.786.786 0 1 1 1.169-1.054l2.22 2.458a.787.787 0 0 1-.585 1.314Zm-12.14 0a.787.787 0 0 1-.627-1.26l1.853-2.459a.787.787 0 1 1 1.257.948l-1.854 2.458a.786.786 0 0 1-.629.313Zm-.64-10.132a.784.784 0 0 1-.128-.01l-3.958-.648a.787.787 0 0 1 .254-1.553l3.958.648a.787.787 0 0 1-.126 1.563Z"/><path fill="#4F46A3" d="M21.436 9.016a.787.787 0 0 1-.497-1.397l5.285-4.3a.788.788 0 0 1 .994 1.22l-5.286 4.3a.784.784 0 0 1-.496.177Z"/></g><defs><filter id="a" width="46" height="55" x="-1.5" y="-1" color-interpolation-filters="sRGB" filterUnits="userSpaceOnUse"><feFlood flood-opacity="0" result="BackgroundImageFix"/><feColorMatrix in="SourceAlpha" result="hardAlpha" values="0 0 0 0 0 0 0 0 0 0 0 0 0 0 0 0 0 0 127 0"/><feOffset dy="1"/><feGaussianBlur stdDeviation="1"/><feColorMatrix values="0 0 0 0 0.211538 0 0 0 0 0.211538 0 0 0 0 0.211538 0 0 0 0.05 0"/><feBlend in2="BackgroundImageFix" result="effect1_dropShadow_497_7573"/><feColorMatrix in="SourceAlpha" result="hardAlpha" values="0 0 0 0 0 0 0 0 0 0 0 0 0 0 0 0 0 0 127 0"/><feOffset dy="3"/><feGaussianBlur stdDeviation="1.5"/><feColorMatrix values="0 0 0 0 0.293269 0 0 0 0 0.293269 0 0 0 0 0.293269 0 0 0 0.04 0"/><feBlend in2="effect1_dropShadow_497_7573" result="effect2_dropShadow_497_7573"/><feColorMatrix in="SourceAlpha" result="hardAlpha" values="0 0 0 0 0 0 0 0 0 0 0 0 0 0 0 0 0 0 127 0"/><feOffset dy="7"/><feGaussianBlur stdDeviation="2"/><feColorMatrix values="0 0 0 0 0.538462 0 0 0 0 0.538462 0 0 0 0 0.538462 0 0 0 0.03 0"/><feBlend in2="effect2_dropShadow_497_7573" result="effect3_dropShadow_497_7573"/><feColorMatrix in="SourceAlpha" result="hardAlpha" values="0 0 0 0 0 0 0 0 0 0 0 0 0 0 0 0 0 0 127 0"/><feOffset dy="13"/><feGaussianBlur stdDeviation="2.5"/><feColorMatrix values="0 0 0 0 0.745192 0 0 0 0 0.745192 0 0 0 0 0.745192 0 0 0 0.01 0"/><feBlend in2="effect3_dropShadow_497_7573" result="effect4_dropShadow_497_7573"/><feBlend in="SourceGraphic" in2="effect4_dropShadow_497_7573" result="shape"/></filter></defs></svg>