<svg xmlns="http://www.w3.org/2000/svg" width="47" height="47" fill="none"><g clip-path="url(#a)" filter="url(#b)"><path fill="#5FCEFF" d="M40.732 17.138v1.66a.857.857 0 0 1-.857.857h-2.38v-3.374h2.38c.473 0 .857.384.857.857Z"/><path fill="#FFB578" d="M37.494 19.655v4.675a1.713 1.713 0 0 1-1.061 1.59 1.72 1.72 0 0 1-2.378-1.59V11.605c0-.475.192-.904.503-1.216a1.72 1.72 0 0 1 2.936 1.216v8.05Z"/><path fill="#FF4893" d="M33.208 19.654v6.82a1.715 1.715 0 0 1-1.72 1.719c-.95 0-1.718-.77-1.718-1.72V9.462a1.715 1.715 0 0 1 1.718-1.72c.95 0 1.72.77 1.72 1.72v10.192Z"/><path fill="#5FCEFF" d="M17.256 16.281H29.77v3.374H17.256v-3.374Z"/><path fill="#FF4893" d="M17.256 19.654v6.82a1.72 1.72 0 0 1-3.44 0V9.461a1.72 1.72 0 0 1 3.44 0v10.192Z"/><path fill="#FFB578" d="M12.97 19.655v4.675a1.72 1.72 0 1 1-3.439 0V11.605a1.72 1.72 0 1 1 3.438 0v8.05Z"/><path fill="#5FCEFF" d="M9.53 16.281v3.374H7.237a.856.856 0 0 1-.856-.856v-1.661c0-.474.383-.857.856-.857H9.53Z"/><path fill="#4F46A3" d="M29.768 20.442H17.254a.787.787 0 0 1 0-1.574h12.514a.787.787 0 0 1 0 1.574Zm4.285 0h-.847a.787.787 0 1 1 0-1.574h.847a.786.786 0 1 1 0 1.574Zm5.82 0h-2.38a.787.787 0 1 1 0-1.574h2.38a.07.07 0 0 0 .07-.07v-1.66a.069.069 0 0 0-.02-.05.071.071 0 0 0-.05-.02h-2.38a.787.787 0 1 1 0-1.574h2.38c.907 0 1.644.737 1.644 1.643v1.661c0 .906-.737 1.644-1.644 1.644Zm-10.105-3.374H17.254a.787.787 0 0 1 0-1.574h12.514a.787.787 0 0 1 0 1.574ZM9.53 20.442H7.237a1.645 1.645 0 0 1-1.643-1.644v-1.66c0-.907.737-1.644 1.643-1.644H9.53a.787.787 0 0 1 0 1.574H7.237a.07.07 0 0 0-.07.07v1.66c0 .039.031.07.07.07H9.53a.787.787 0 0 1 0 1.574Z"/><path fill="#4F46A3" d="M15.536 28.98a2.492 2.492 0 0 1-1.773-.734 2.491 2.491 0 0 1-.734-1.772V9.462a2.51 2.51 0 0 1 2.507-2.506c.67 0 1.299.26 1.772.734a2.49 2.49 0 0 1 .734 1.772v17.012a2.51 2.51 0 0 1-2.506 2.506Zm0-20.45a.934.934 0 0 0-.933.932v17.012a.927.927 0 0 0 .575.862.934.934 0 0 0 1.29-.862V9.462a.927.927 0 0 0-.273-.66.927.927 0 0 0-.66-.272Z"/><path fill="#4F46A3" d="M11.25 26.837a2.487 2.487 0 0 1-1.772-.734 2.49 2.49 0 0 1-.734-1.772V11.606a2.509 2.509 0 0 1 2.505-2.507c.67 0 1.3.261 1.773.734a2.49 2.49 0 0 1 .734 1.773V24.33a2.51 2.51 0 0 1-2.507 2.506Zm0-16.164a.933.933 0 0 0-.932.933V24.33a.927.927 0 0 0 .575.862.934.934 0 0 0 1.29-.862V11.606a.927.927 0 0 0-.274-.66.927.927 0 0 0-.66-.273ZM31.487 28.98a2.509 2.509 0 0 1-2.506-2.506V9.462a2.49 2.49 0 0 1 .734-1.772 2.483 2.483 0 0 1 1.772-.734 2.51 2.51 0 0 1 2.506 2.506v17.012a2.49 2.49 0 0 1-.734 1.772 2.492 2.492 0 0 1-1.772.734Zm0-20.45a.93.93 0 0 0-.932.933v17.01a.933.933 0 0 0 1.864 0V9.464a.934.934 0 0 0-.932-.933Z"/><path fill="#4F46A3" d="M35.774 26.836a2.51 2.51 0 0 1-2.506-2.506V11.605c0-.67.26-1.3.734-1.772a2.49 2.49 0 0 1 1.772-.734 2.51 2.51 0 0 1 2.506 2.506V24.33c0 .67-.26 1.3-.734 1.772a2.489 2.489 0 0 1-1.772.734Zm0-16.164a.928.928 0 0 0-.862.576.926.926 0 0 0-.07.357V24.33a.934.934 0 0 0 1.865 0V11.605a.934.934 0 0 0-.933-.933Z"/></g><defs><clipPath id="a"><path fill="#fff" d="M5.5 0h36v36h-36z"/></clipPath><filter id="b" width="46" height="55" x=".5" y="-1" color-interpolation-filters="sRGB" filterUnits="userSpaceOnUse"><feFlood flood-opacity="0" result="BackgroundImageFix"/><feColorMatrix in="SourceAlpha" result="hardAlpha" values="0 0 0 0 0 0 0 0 0 0 0 0 0 0 0 0 0 0 127 0"/><feOffset dy="1"/><feGaussianBlur stdDeviation="1"/><feColorMatrix values="0 0 0 0 0.211538 0 0 0 0 0.211538 0 0 0 0 0.211538 0 0 0 0.05 0"/><feBlend in2="BackgroundImageFix" result="effect1_dropShadow_497_8106"/><feColorMatrix in="SourceAlpha" result="hardAlpha" values="0 0 0 0 0 0 0 0 0 0 0 0 0 0 0 0 0 0 127 0"/><feOffset dy="3"/><feGaussianBlur stdDeviation="1.5"/><feColorMatrix values="0 0 0 0 0.293269 0 0 0 0 0.293269 0 0 0 0 0.293269 0 0 0 0.04 0"/><feBlend in2="effect1_dropShadow_497_8106" result="effect2_dropShadow_497_8106"/><feColorMatrix in="SourceAlpha" result="hardAlpha" values="0 0 0 0 0 0 0 0 0 0 0 0 0 0 0 0 0 0 127 0"/><feOffset dy="7"/><feGaussianBlur stdDeviation="2"/><feColorMatrix values="0 0 0 0 0.538462 0 0 0 0 0.538462 0 0 0 0 0.538462 0 0 0 0.03 0"/><feBlend in2="effect2_dropShadow_497_8106" result="effect3_dropShadow_497_8106"/><feColorMatrix in="SourceAlpha" result="hardAlpha" values="0 0 0 0 0 0 0 0 0 0 0 0 0 0 0 0 0 0 127 0"/><feOffset dy="13"/><feGaussianBlur stdDeviation="2.5"/><feColorMatrix values="0 0 0 0 0.745192 0 0 0 0 0.745192 0 0 0 0 0.745192 0 0 0 0.01 0"/><feBlend in2="effect3_dropShadow_497_8106" result="effect4_dropShadow_497_8106"/><feBlend in="SourceGraphic" in2="effect4_dropShadow_497_8106" result="shape"/></filter></defs></svg>