<svg xmlns="http://www.w3.org/2000/svg" width="37" height="52" fill="none"><g filter="url(#a)"><path fill="#4FD3A7" d="M8.586 2.23h-.793V34h.793V2.23Z"/><path fill="#C3FCE7" d="M7.793 2.23H7V34h.793V2.23Z"/><path fill="#4FD3A7" d="M8.428 34V2.23H30.44V34H8.428Z"/><path fill="#60E8BE" d="M9.22 3.023h20.427v30.184H9.221V3.023Z"/><path fill="#fff" d="M25.044 23.724c-3.093 3.093-8.125 3.092-11.218 0-3.093-3.094-3.093-8.125 0-11.218s8.125-3.094 11.218 0c3.093 3.092 3.093 8.125 0 11.218Z"/><path fill="#E6E6E6" d="M25.043 23.725c-3.093 3.093-8.126 3.092-11.219 0l11.219-11.22c3.093 3.094 3.093 8.127 0 11.22Z"/><path fill="#F2F2F2" d="M24.483 23.163a7.135 7.135 0 0 1-10.097 0 7.14 7.14 0 1 1 10.097 0Z"/><path fill="#FF5069" d="M24.804 16.248v3.735h-3.502v3.502h-3.736v-3.502h-3.501v-3.735h3.501v-3.502h3.736v3.502h3.502Z"/><path fill="#F6F6F6" d="m22.084 11.483-.78 2.21v2.554h3.501v3.736h-3.502v3.502h-3.456l-.513 1.453c.684.21 1.393.316 2.103.316a7.116 7.116 0 0 0 5.047-2.091 7.118 7.118 0 0 0 2.09-5.048 7.117 7.117 0 0 0-2.09-5.048 7.11 7.11 0 0 0-2.4-1.584Z"/><path fill="#FF8697" d="m21.302 13.694-3.456 9.791h3.456v-3.502h3.502v-3.735h-3.502v-2.554Z"/><path fill="#C3FCE7" d="m8.428 34 .793-.793V3.024h20.426l.794-.794H8.428V34Z"/><path fill="#4FD3A7" d="M28.224 9.235 26.26 7.45l-1.963 1.785V3.023h3.927v6.212ZM28.224 3.023 27.747 2l-3.45 1.023h3.927Z"/><path fill="#FF5069" d="m27.747 8.759-1.963-1.785L23.82 8.76V2h3.927v6.759Z"/></g><defs><filter id="a" width="46" height="55" x="-4.5" y="-1" color-interpolation-filters="sRGB" filterUnits="userSpaceOnUse"><feFlood flood-opacity="0" result="BackgroundImageFix"/><feColorMatrix in="SourceAlpha" result="hardAlpha" values="0 0 0 0 0 0 0 0 0 0 0 0 0 0 0 0 0 0 127 0"/><feOffset dy="1"/><feGaussianBlur stdDeviation="1"/><feColorMatrix values="0 0 0 0 0.211538 0 0 0 0 0.211538 0 0 0 0 0.211538 0 0 0 0.05 0"/><feBlend in2="BackgroundImageFix" result="effect1_dropShadow_497_8291"/><feColorMatrix in="SourceAlpha" result="hardAlpha" values="0 0 0 0 0 0 0 0 0 0 0 0 0 0 0 0 0 0 127 0"/><feOffset dy="3"/><feGaussianBlur stdDeviation="1.5"/><feColorMatrix values="0 0 0 0 0.293269 0 0 0 0 0.293269 0 0 0 0 0.293269 0 0 0 0.04 0"/><feBlend in2="effect1_dropShadow_497_8291" result="effect2_dropShadow_497_8291"/><feColorMatrix in="SourceAlpha" result="hardAlpha" values="0 0 0 0 0 0 0 0 0 0 0 0 0 0 0 0 0 0 127 0"/><feOffset dy="7"/><feGaussianBlur stdDeviation="2"/><feColorMatrix values="0 0 0 0 0.538462 0 0 0 0 0.538462 0 0 0 0 0.538462 0 0 0 0.03 0"/><feBlend in2="effect2_dropShadow_497_8291" result="effect3_dropShadow_497_8291"/><feColorMatrix in="SourceAlpha" result="hardAlpha" values="0 0 0 0 0 0 0 0 0 0 0 0 0 0 0 0 0 0 127 0"/><feOffset dy="13"/><feGaussianBlur stdDeviation="2.5"/><feColorMatrix values="0 0 0 0 0.745192 0 0 0 0 0.745192 0 0 0 0 0.745192 0 0 0 0.01 0"/><feBlend in2="effect3_dropShadow_497_8291" result="effect4_dropShadow_497_8291"/><feBlend in="SourceGraphic" in2="effect4_dropShadow_497_8291" result="shape"/></filter></defs></svg>