<svg xmlns="http://www.w3.org/2000/svg" width="42" height="52" fill="none"><g clip-path="url(#a)" filter="url(#b)"><path fill="#880E4F" fill-rule="evenodd" d="M16.263 4.322c.354.02.937-1.52 1.166-1.27 1.895 2.061 5.725 1.874 7.079.041.312-.437.666 1.375 1.207 1.229v8.89h-9.473v-8.89h.021ZM36.876 29.847c.041.812.062 1.603.104 2.311l.02.687h-5.309l-.02-.645-.105-2.374h5.351l-.041.021ZM10.434 29.847l-.104 2.373-.021.645H5l.02-.687c.022-.707.063-1.498.105-2.31h5.35l-.041-.021Z" clip-rule="evenodd"/><path fill="#C72464" fill-rule="evenodd" d="M25.404 4.218c2.061.042 5.913.396 6.87 2.498.771 1.708 1.416 3.186 1.958 4.602.541 1.436.978 2.769 1.332 4.164.417 1.644.729 4.684.958 7.994.146 2.145.25 4.414.354 6.475h-5.35l-.584-12.387-1.27-3.186v16.177a2.74 2.74 0 0 1-.812 1.936c-.5.5-1.186.812-1.936.812H15.098a2.74 2.74 0 0 1-1.936-.812 2.74 2.74 0 0 1-.812-1.936V14.4l-1.27 3.185-.583 12.388h-5.35c.083-2.061.208-4.351.353-6.475.23-3.31.52-6.35.958-7.995a37.049 37.049 0 0 1 1.333-4.164c.54-1.415 1.186-2.914 1.957-4.6.437-.958 1.415-1.52 2.498-1.875 1.332-.416 2.956-.582 4.351-.666.104 2.624 2.04 4.726 4.414 4.726 2.353 0 4.289-2.082 4.414-4.684l-.02-.02Z" clip-rule="evenodd"/><path fill="#780B45" d="M20.72 9.84c-2.665 0-4.31-3.29-4.268-5.643l.437-.687c.375-.562.625-.729.666-.146.146 1.833 1.146 4.602 3.436 4.789l-.271 1.686Z"/><path fill="#780B45" d="M21.26 9.84c2.666 0 4.31-3.29 4.269-5.643l-.437-.687c-.375-.562-.625-.729-.666-.146-.146 1.833-1.146 4.602-3.436 4.789l.27 1.686Z"/><path fill="#880E4F" fill-rule="evenodd" d="M21.551 12.983h-1.644l-.354 6.913 3.456 2.81-1.458-9.723Z" clip-rule="evenodd"/><path fill="#F06292" fill-rule="evenodd" d="m23.009 22.685.187 1.354-3.643 3.955.437-7.765 3.019 2.456ZM20.115 9.485h1.624l.77 4.33-2.956 6.08.562-10.41Z" clip-rule="evenodd"/><path fill="#FF6D00" fill-rule="evenodd" d="M18.74 8.986c.917.417 1.875.77 1.875 1 0 .25-.958 1-1.874 1-.916 0-.625-.459-.625-1 0-.562-.291-1.437.625-1ZM23.405 8.986c-.916.417-1.874.77-1.874 1 0 .25.958 1 1.874 1 .916 0 .625-.459.625-1 0-.562.291-1.437-.625-1Z" clip-rule="evenodd"/><path fill="#E65100" d="M21.01 10.88c.506 0 .916-.4.916-.895a.906.906 0 0 0-.916-.895c-.506 0-.916.4-.916.895s.41.895.916.895Z"/></g><defs><clipPath id="a"><path fill="#fff" d="M2.5 0h36v36h-36z"/></clipPath><filter id="b" width="46" height="55" x="-2.5" y="-1" color-interpolation-filters="sRGB" filterUnits="userSpaceOnUse"><feFlood flood-opacity="0" result="BackgroundImageFix"/><feColorMatrix in="SourceAlpha" result="hardAlpha" values="0 0 0 0 0 0 0 0 0 0 0 0 0 0 0 0 0 0 127 0"/><feOffset dy="1"/><feGaussianBlur stdDeviation="1"/><feColorMatrix values="0 0 0 0 0.211538 0 0 0 0 0.211538 0 0 0 0 0.211538 0 0 0 0.05 0"/><feBlend in2="BackgroundImageFix" result="effect1_dropShadow_497_7843"/><feColorMatrix in="SourceAlpha" result="hardAlpha" values="0 0 0 0 0 0 0 0 0 0 0 0 0 0 0 0 0 0 127 0"/><feOffset dy="3"/><feGaussianBlur stdDeviation="1.5"/><feColorMatrix values="0 0 0 0 0.293269 0 0 0 0 0.293269 0 0 0 0 0.293269 0 0 0 0.04 0"/><feBlend in2="effect1_dropShadow_497_7843" result="effect2_dropShadow_497_7843"/><feColorMatrix in="SourceAlpha" result="hardAlpha" values="0 0 0 0 0 0 0 0 0 0 0 0 0 0 0 0 0 0 127 0"/><feOffset dy="7"/><feGaussianBlur stdDeviation="2"/><feColorMatrix values="0 0 0 0 0.538462 0 0 0 0 0.538462 0 0 0 0 0.538462 0 0 0 0.03 0"/><feBlend in2="effect2_dropShadow_497_7843" result="effect3_dropShadow_497_7843"/><feColorMatrix in="SourceAlpha" result="hardAlpha" values="0 0 0 0 0 0 0 0 0 0 0 0 0 0 0 0 0 0 127 0"/><feOffset dy="13"/><feGaussianBlur stdDeviation="2.5"/><feColorMatrix values="0 0 0 0 0.745192 0 0 0 0 0.745192 0 0 0 0 0.745192 0 0 0 0.01 0"/><feBlend in2="effect3_dropShadow_497_7843" result="effect4_dropShadow_497_7843"/><feBlend in="SourceGraphic" in2="effect4_dropShadow_497_7843" result="shape"/></filter></defs></svg>