<svg xmlns="http://www.w3.org/2000/svg" width="46" height="51" fill="none"><g clip-path="url(#a)" filter="url(#b)"><path fill="#fff" d="m10.215 19.305-3.23 3.555v3.645l1.124 2.07 5.58-3.06"/><path fill="#FF4893" d="m38.663 11.006 1.413 2.448L8.95 31.426l-1.414-2.448 6.338-3.66 20.923-12.08 3.865-2.232Z"/><path fill="#FFB578" d="m38.662 11.006-3.865 2.232a7.319 7.319 0 0 1-.096-7.147c1.413 1.163 2.783 2.875 3.961 4.915Z"/><path fill="#5FCEFF" d="M34.798 13.238 13.875 25.32l-.07-.123-2.201-3.812 8.466-12.88a5.021 5.021 0 0 0 4.188 1.901 5.028 5.028 0 0 0 4.779-5.268l.024-.22c1.709-.986 3.715-.413 5.64 1.174a7.32 7.32 0 0 0 .097 7.147Z"/><path fill="#FFB578" d="m20.07 8.503-8.467 12.881-1.388-2.404 8.774-13.354a5.003 5.003 0 0 0 1.08 2.877Z"/><path fill="#4F46A3" d="M38.663 11.793a.786.786 0 0 1-.682-.394c-1.144-1.982-2.451-3.607-3.78-4.7-1.25-1.03-3.088-2.058-4.747-1.101a.787.787 0 0 1-.786-1.363c1.903-1.098 4.224-.655 6.533 1.249 1.472 1.211 2.905 2.985 4.143 5.129a.787.787 0 0 1-.68 1.18ZM7.538 29.765a.788.788 0 0 1-.682-.393 8.054 8.054 0 0 1-.81-6.152 8.049 8.049 0 0 1 3.776-4.922.787.787 0 1 1 .786 1.363 6.485 6.485 0 0 0-3.043 3.965 6.491 6.491 0 0 0 .653 4.959.787.787 0 0 1-.68 1.18Z"/><path fill="#4F46A3" d="M10.214 19.767a.786.786 0 0 1-.657-1.219l8.775-13.354a.787.787 0 1 1 1.319.858l-.004.006-8.775 13.354a.787.787 0 0 1-.658.355ZM8.951 32.213a.786.786 0 0 1-.682-.393l-1.414-2.448a.787.787 0 0 1 .288-1.075L38.27 10.325a.786.786 0 0 1 1.075.288l1.412 2.448a.787.787 0 0 1-.288 1.074L9.344 32.108a.783.783 0 0 1-.393.105Zm-.34-2.947.627 1.085 29.763-17.185-.627-1.085L8.611 29.266Z"/><path fill="#4F46A3" d="M24.006 11.197a5.782 5.782 0 0 1-4.553-2.205 5.772 5.772 0 0 1-1.25-3.328.786.786 0 1 1 1.572-.078v.001c.04.885.359 1.734.91 2.427a4.217 4.217 0 0 0 3.53 1.605 4.217 4.217 0 0 0 2.94-1.388 4.214 4.214 0 0 0 1.095-3.056.786.786 0 1 1 1.571-.077 5.775 5.775 0 0 1-1.5 4.19 5.778 5.778 0 0 1-4.315 1.909ZM13.804 25.982a.787.787 0 0 1-.682-.393l-3.589-6.216a.787.787 0 0 1 1.363-.787l3.588 6.216a.787.787 0 0 1-.68 1.18Z"/><path fill="#4F46A3" d="M11.603 22.171a.786.786 0 0 1-.657-1.219l8.466-12.88a.787.787 0 0 1 1.315.863l-8.466 12.882a.785.785 0 0 1-.658.354Zm23.195-8.146a.787.787 0 0 1-.682-.394 8.062 8.062 0 0 1-.107-7.914.786.786 0 1 1 1.384.749 6.5 6.5 0 0 0 .086 6.38.786.786 0 0 1-.68 1.18Zm-12.297 6.772a.784.784 0 0 1-.3-.06l-5.057-2.09a.787.787 0 0 1 .6-1.454l5.058 2.09a.786.786 0 0 1-.3 1.514Zm2.81-1.91a.784.784 0 0 1-.3-.06l-5.058-2.09a.786.786 0 1 1 .601-1.454l5.058 2.09a.787.787 0 0 1-.3 1.513Zm3.147-1.574a.782.782 0 0 1-.3-.06l-5.057-2.09a.787.787 0 1 1 .6-1.454l5.058 2.09a.787.787 0 0 1-.3 1.514Z"/></g><defs><clipPath id="a"><path fill="#fff" d="M5.5 0h36v36h-36z"/></clipPath><filter id="b" width="46" height="55" x=".5" y="-1" color-interpolation-filters="sRGB" filterUnits="userSpaceOnUse"><feFlood flood-opacity="0" result="BackgroundImageFix"/><feColorMatrix in="SourceAlpha" result="hardAlpha" values="0 0 0 0 0 0 0 0 0 0 0 0 0 0 0 0 0 0 127 0"/><feOffset dy="1"/><feGaussianBlur stdDeviation="1"/><feColorMatrix values="0 0 0 0 0.211538 0 0 0 0 0.211538 0 0 0 0 0.211538 0 0 0 0.05 0"/><feBlend in2="BackgroundImageFix" result="effect1_dropShadow_497_8750"/><feColorMatrix in="SourceAlpha" result="hardAlpha" values="0 0 0 0 0 0 0 0 0 0 0 0 0 0 0 0 0 0 127 0"/><feOffset dy="3"/><feGaussianBlur stdDeviation="1.5"/><feColorMatrix values="0 0 0 0 0.293269 0 0 0 0 0.293269 0 0 0 0 0.293269 0 0 0 0.04 0"/><feBlend in2="effect1_dropShadow_497_8750" result="effect2_dropShadow_497_8750"/><feColorMatrix in="SourceAlpha" result="hardAlpha" values="0 0 0 0 0 0 0 0 0 0 0 0 0 0 0 0 0 0 127 0"/><feOffset dy="7"/><feGaussianBlur stdDeviation="2"/><feColorMatrix values="0 0 0 0 0.538462 0 0 0 0 0.538462 0 0 0 0 0.538462 0 0 0 0.03 0"/><feBlend in2="effect2_dropShadow_497_8750" result="effect3_dropShadow_497_8750"/><feColorMatrix in="SourceAlpha" result="hardAlpha" values="0 0 0 0 0 0 0 0 0 0 0 0 0 0 0 0 0 0 127 0"/><feOffset dy="13"/><feGaussianBlur stdDeviation="2.5"/><feColorMatrix values="0 0 0 0 0.745192 0 0 0 0 0.745192 0 0 0 0 0.745192 0 0 0 0.01 0"/><feBlend in2="effect3_dropShadow_497_8750" result="effect4_dropShadow_497_8750"/><feBlend in="SourceGraphic" in2="effect4_dropShadow_497_8750" result="shape"/></filter></defs></svg>