<svg xmlns="http://www.w3.org/2000/svg" width="20" height="21" fill="none"><path fill="#7C7C7C" d="M18.306 9.666V7.722c0-.369-.15-.722-.42-.983a1.455 1.455 0 0 0-1.012-.406h-1.146v-.278c0-.368-.151-.722-.42-.982a1.455 1.455 0 0 0-1.012-.407h-1.72c-.379 0-.743.146-1.012.407-.269.26-.42.614-.42.982v3.611H8.854V6.055c0-.368-.151-.722-.42-.982a1.455 1.455 0 0 0-1.012-.407H5.7c-.379 0-.743.146-1.012.407-.269.26-.42.614-.42.982v.278H3.125c-.38 0-.744.146-1.013.406-.269.261-.42.614-.42.983v1.944a.873.873 0 0 0-.607.244.82.82 0 0 0-.252.59c0 .22.09.432.252.589.16.156.38.244.607.244v1.944c0 .369.151.722.42.982s.633.407 1.013.407H4.27v.278c0 .368.15.721.419.982.269.26.633.407 1.013.407H7.42c.38 0 .744-.147 1.012-.407.269-.26.42-.614.42-.982v-3.611h2.292v3.61c0 .37.15.722.419.983.269.26.633.407 1.013.407h1.719c.38 0 .744-.147 1.012-.407.269-.26.42-.614.42-.982v-.278h1.146c.38 0 .744-.146 1.013-.407.268-.26.419-.614.419-.982v-1.944a.873.873 0 0 0 .608-.244.821.821 0 0 0 .251-.59.821.821 0 0 0-.251-.589.873.873 0 0 0-.608-.244ZM3.41 12.999V8h.86v5h-.86Zm3.724 1.667H5.988V6.333h1.146v8.333Zm6.875 0h-1.146V6.333h1.146v8.333Zm2.578-1.667h-.86V8h.86v5Z"/></svg>