<svg xmlns="http://www.w3.org/2000/svg" width="20" height="21" fill="none"><path fill="#7C7C7C" d="M14.999 1.334c0 .596-.054 1.15-.154 1.667H6.859a5.84 5.84 0 0 0 .707 1.666h6.75c-.874 1.93-2.495 3.328-4.317 4.773-2.726-2.16-5-4.216-5-8.106H3.332c0 4.555 2.675 7.053 5.322 9.167-2.647 2.113-5.322 4.611-5.322 9.166h1.667c0-4.133 2.566-6.195 5.515-8.511l.076-.06c2.866-2.252 6.075-4.773 6.075-9.762H15Zm-.154 16.667H6.859a5.84 5.84 0 0 1 .707-1.667h6.75c-.656-1.448-1.732-2.597-2.998-3.69.444-.35.891-.697 1.332-1.053 2.154 1.908 4.015 4.276 4.015 8.077H15c0-.597-.054-1.15-.154-1.667Z"/></svg>