<svg xmlns="http://www.w3.org/2000/svg" width="20" height="21" fill="none"><path fill="#7C7C7C" d="m10 2.23.38.194a10.04 10.04 0 0 1 3.668 3.205 9.934 9.934 0 0 1 2.468-.797l.984-.181v6.683a7.5 7.5 0 0 1-15 0V4.65l.984.18c.867.16 1.695.431 2.468.798a10.042 10.042 0 0 1 3.669-3.205L10 2.23ZM7.398 6.471A10.05 10.05 0 0 1 10 9.137a10.055 10.055 0 0 1 2.602-2.666A8.379 8.379 0 0 0 10 4.115 8.38 8.38 0 0 0 7.398 6.47Zm1.685 4.39a8.376 8.376 0 0 0-4.916-4.146v4.619A5.836 5.836 0 0 0 8.607 17a10.027 10.027 0 0 1-.274-2.333c0-1.347.267-2.632.75-3.805Zm1.295 6.294a5.834 5.834 0 0 0 5.455-5.822V6.716A8.33 8.33 0 0 0 10 14.667c0 .868.132 1.703.378 2.488Z"/></svg>