<svg xmlns="http://www.w3.org/2000/svg" width="20" height="21" fill="none"><path fill="#7C7C7C" d="M10.001 2.166a8.333 8.333 0 1 1 0 16.667 8.333 8.333 0 0 1 0-16.667Zm1.392 11.667H8.609l-1.149 1.58.462 1.422c.654.215 1.353.331 2.08.331.725 0 1.425-.116 2.079-.33l.46-1.423-1.148-1.58Zm-6.98-4.274-1.077.782-.001.158c0 1.442.457 2.776 1.235 3.867h1.592l1.101-1.517-.856-2.641-1.994-.649Zm11.176 0-1.994.649-.857 2.641 1.102 1.517h1.593a6.636 6.636 0 0 0 1.235-3.867l-.002-.158-1.077-.782Zm-5.588-1.113L8.048 9.864l.747 2.302h2.412l.747-2.302L10 8.446Zm1.91-4.336-1.077.783v2.098l2.245 1.63 1.866-.605.462-1.42A6.679 6.679 0 0 0 11.91 4.11Zm-3.82 0a6.679 6.679 0 0 0-3.496 2.487l.462 1.419 1.866.606L9.168 6.99V4.893L8.09 4.11Z"/></svg>