<svg xmlns="http://www.w3.org/2000/svg" width="33" height="32" fill="none"><path fill="#1E1F1E" d="M11.109 2.79h11.003a7.603 7.603 0 0 1 7.597 7.596V21.39a7.597 7.597 0 0 1-7.597 7.597H11.109a7.603 7.603 0 0 1-7.597-7.597V10.386a7.597 7.597 0 0 1 7.597-7.597Zm-.262 2.619a4.715 4.715 0 0 0-4.716 4.715v11.527a4.712 4.712 0 0 0 4.716 4.715h11.527a4.716 4.716 0 0 0 4.715-4.715V10.124a4.713 4.713 0 0 0-4.715-4.715H10.847Zm12.64 1.965a1.638 1.638 0 1 1 0 3.275 1.638 1.638 0 0 1 0-3.275ZM16.61 9.338a6.55 6.55 0 1 1 0 13.099 6.55 6.55 0 0 1 0-13.099Zm0 2.62a3.93 3.93 0 1 0 0 7.86 3.93 3.93 0 0 0 0-7.86Z"/></svg>