<svg xmlns="http://www.w3.org/2000/svg" width="20" height="21" fill="none"><path fill="#7C7C7C" d="M17.986 13.033v-.022a3.177 3.177 0 0 0-.637-1.627 2.982 2.982 0 0 0-1.383-1.005L12.128 8.95l-.017-.006a1.345 1.345 0 0 1-.48-.293c-.14-.13-.251-.29-.328-.469l-1.57-3.836-.004-.01a1.388 1.388 0 0 0-.71-.725c-.316-.14-.67-.15-.993-.028L2.893 5.53c-.261.1-.487.28-.647.518a1.46 1.46 0 0 0-.246.81v8.23c0 .375.143.734.397 1 .254.264.6.413.959.413h13.288c.36 0 .705-.149.959-.414s.397-.624.397-1v-1.761c0-.098-.005-.195-.014-.292ZM8.341 5.269l.407.99-1.06.4a.807.807 0 0 0-.278.169.877.877 0 0 0-.057 1.21.786.786 0 0 0 .891.215l1.146-.434.308.751-.922.354a.824.824 0 0 0-.42.373.879.879 0 0 0 .178 1.066c.145.128.327.2.517.202a.77.77 0 0 0 .278-.052l1.327-.502c.278.237.595.42.935.54l3.839 1.427.015.006c.171.059.329.153.464.276H3.627V7.056l4.714-1.787Zm-4.714 9.535v-.848h12.746v.848H3.627Z"/></svg>