<svg xmlns="http://www.w3.org/2000/svg" width="32" height="32" fill="none"><path fill="#1E1F1E" d="M29.814 8.03a11.22 11.22 0 0 1-3.222.904 5.63 5.63 0 0 0 2.462-3.118 11.317 11.317 0 0 1-3.562 1.376c-1.035-1.127-2.49-1.782-4.14-1.782-3.078 0-5.593 2.515-5.593 5.62 0 .445.053.877.144 1.283A15.973 15.973 0 0 1 4.324 6.445a5.56 5.56 0 0 0-.76 2.816c0 1.952.983 3.68 2.503 4.663-.93 0-1.795-.262-2.555-.655v.04a5.623 5.623 0 0 0 4.506 5.514 5.527 5.527 0 0 1-2.528.092 5.606 5.606 0 0 0 5.24 3.903 11.161 11.161 0 0 1-6.982 2.41c-.445 0-.89-.026-1.336-.078a15.907 15.907 0 0 0 8.619 2.528c10.321 0 15.993-8.567 15.993-15.994 0-.248 0-.484-.013-.733a11.228 11.228 0 0 0 2.803-2.921Z"/></svg>