<svg xmlns="http://www.w3.org/2000/svg" width="33" height="32" fill="none"><path fill="#1E1F1E" d="m13.735 19.817 6.798-3.93-6.798-3.929v7.86ZM28.877 9.561c.17.616.288 1.441.366 2.489.092 1.048.131 1.951.131 2.737l.079 1.1c0 2.87-.21 4.978-.576 6.327-.328 1.18-1.088 1.939-2.267 2.266-.615.17-1.742.288-3.47.367a87.39 87.39 0 0 1-4.703.131l-2.083.079c-5.488 0-8.907-.21-10.256-.577-1.179-.327-1.938-1.087-2.266-2.266-.17-.615-.288-1.44-.367-2.488a31.512 31.512 0 0 1-.13-2.738l-.08-1.1c0-2.869.21-4.978.577-6.327.328-1.179 1.087-1.938 2.266-2.266.616-.17 1.742-.288 3.471-.367a87.301 87.301 0 0 1 4.703-.13l2.082-.08c5.489 0 8.907.21 10.256.577 1.18.328 1.939 1.087 2.267 2.266Z"/></svg>