<svg xmlns="http://www.w3.org/2000/svg" width="24" height="24" fill="none"><path fill="#000" d="M13 12.875v3.75a1.125 1.125 0 1 1-2.25 0v-3.75a1.125 1.125 0 0 1 2.25 0Zm2.63-.112-.374 3.75a1.125 1.125 0 0 0 1.008 1.231c.037 0 .076.006.112.006a1.125 1.125 0 0 0 1.119-1.014l.375-3.75a1.125 1.125 0 0 0-2.24-.223Zm-7.51 0a1.125 1.125 0 0 0-2.24.223l.376 3.75a1.125 1.125 0 0 0 1.12 1.014c.036 0 .074 0 .112-.006a1.125 1.125 0 0 0 1.008-1.23l-.376-3.75Zm14.625-3.49-1.413 10.595a1.881 1.881 0 0 1-1.863 1.632H4.281a1.88 1.88 0 0 1-1.858-1.628L1.011 9.278A1.125 1.125 0 0 1 2.125 8h3.99l4.916-5.616a1.125 1.125 0 0 1 1.694 0L17.636 8h3.99a1.125 1.125 0 0 1 1.114 1.274h.005ZM9.105 8h5.54l-2.77-3.167L9.105 8Zm11.235 2.25H3.41l1.2 9h14.532l1.198-9Z"/></svg>