<svg xmlns="http://www.w3.org/2000/svg" width="24" height="18" fill="none"><g clip-path="url(#a)"><mask id="b" width="25" height="19" x="0" y="0" maskUnits="userSpaceOnUse" style="mask-type:luminance"><path fill="#fff" d="M0 .001h24.001v18H0v-18Z"/></mask><g mask="url(#b)"><path fill="#fff" fill-rule="evenodd" d="M0 .001h24.005v18H0v-18Z" clip-rule="evenodd"/><path fill="#000" fill-rule="evenodd" d="m2.63 5.469 2.498-3.744.624.416-2.497 3.744-.624-.416Zm.937.624 2.497-3.744.624.416L4.19 6.51l-.624-.416Zm.936.624L7 2.973l.624.416-2.497 3.744-.624-.416ZM16.36 14.624l2.496-3.744.624.416-2.497 3.744-.624-.416Zm.935.624 2.497-3.744.624.417-2.497 3.743-.624-.416Zm.936.624 2.497-3.743.624.416-2.497 3.744-.624-.417ZM17.295 12.544l3.12 2.08-3.12-2.08Z" clip-rule="evenodd"/><path stroke="#fff" stroke-width=".375" d="m17.295 12.544 3.12 2.08"/><path fill="#CD2E3A" fill-rule="evenodd" d="M8.248 6.51a4.5 4.5 0 1 1 7.488 4.993L8.248 6.51Z" clip-rule="evenodd"/><path fill="#0047A0" fill-rule="evenodd" d="M8.247 6.51a4.5 4.5 0 1 0 7.487 4.994 2.25 2.25 0 1 0-3.743-2.497L8.247 6.51Z" clip-rule="evenodd"/><path fill="#CD2E3A" d="M11.992 9.007A2.25 2.25 0 1 0 8.248 6.51a2.25 2.25 0 0 0 3.744 2.497Z"/><path fill="#000" fill-rule="evenodd" d="M5.137 16.288 2.64 12.544l.624-.416 2.497 3.744-.624.416Zm.936-.624L3.576 11.92l.624-.416 2.497 3.744-.624.416Zm.936-.624-2.497-3.744.624-.416 2.497 3.744-.624.416ZM18.863 7.134 16.366 3.39l.624-.416 2.497 3.744-.624.416Zm.936-.624-2.497-3.744.624-.416 2.497 3.743-.624.417Zm.936-.625-2.497-3.743.624-.417L21.36 5.47l-.624.416ZM4.668 13.896l.936-.624-.936.624ZM17.303 5.47l1.092-.728-1.092.728Zm2.028-1.353.936-.624-.936.624Z" clip-rule="evenodd"/><path stroke="#fff" stroke-width=".375" d="m4.668 13.896.936-.624m11.7-7.802 1.091-.728m.936-.625.936-.624"/></g></g><defs><clipPath id="a"><path fill="#fff" d="M0 0h24v18H0z"/></clipPath></defs></svg>