<svg xmlns="http://www.w3.org/2000/svg" width="25" height="18" fill="none"><g clip-path="url(#a)"><mask id="b" width="19" height="18" x="0" y="0" maskUnits="userSpaceOnUse" style="mask-type:luminance"><path fill="#fff" d="M.5 0h18v18H.5V0Z"/></mask><g fill-rule="evenodd" clip-rule="evenodd" mask="url(#b)"><path fill="#CE0000" stroke="#000063" stroke-width=".485" d="M.729 17.771h13.317L5.33 8.934l9.046.01L.732.23V17.77H.729Z"/><path fill="#fff" d="m6.853 13.071-.95.316.746.697-1.002-.064.411.921-.896-.432.017 1.005-.66-.734-.377.935-.323-.925-.714.725.063-.974-.945.4.443-.879-1.03.022.755-.644-.96-.369.95-.316-.749-.696.998.063-.407-.921.9.432-.018-1.005.661.735.376-.936.32.925.717-.724-.067.974.95-.401-.447.879 1.034-.021-.756.643.96.37Zm-1.14-6.493-.397.295.197.162a3.298 3.298 0 0 0 1.08-1.266c.063.749-.623 2.426-2.416 2.444A2.482 2.482 0 0 1 1.664 5.74c.351.64.57.95 1.125 1.283l.165-.154-.373-.313.482-.127-.26-.436.506.035-.063-.506.443.26.14-.474.317.38.299-.363.161.492.415-.288-.053.503.5-.06-.236.464.482.14Z"/></g></g><defs><clipPath id="a"><path fill="#fff" d="M.5 0h24v18H.5z"/></clipPath></defs></svg>