<svg xmlns="http://www.w3.org/2000/svg" width="20" height="20" fill="none"><path fill="#383838" d="M3.333 2.5a.833.833 0 0 0-.833.833v13.334c0 .46.373.833.833.833h8.334c.46 0 .833-.373.833-.833v-3.92l.833 3.92c.096.45.538.737.988.641l3.26-.693a.833.833 0 0 0 .643-.988L15.798 4.215a.833.833 0 0 0-.988-.642l-2.316.492a.833.833 0 0 0-.827-.732H8.333A.833.833 0 0 0 7.5 2.5H3.333Zm5 2.5h2.5v6.667h-2.5V5Zm0 10.833v-2.5h2.5v2.5h-2.5ZM6.667 4.167V12.5h-2.5V4.167h2.5Zm0 10v1.666h-2.5v-1.666h2.5Zm7.776-.292 1.63-.347.347 1.63-1.63.347-.347-1.63Zm-.346-1.63L12.71 5.722l1.63-.346 1.386 6.52-1.63.347Z"/></svg>