<svg xmlns="http://www.w3.org/2000/svg" width="19" height="18" fill="none"><path fill="#252525" d="M17.24 4.154h-2.462V1.731c0-.46-.186-.9-.516-1.224A1.774 1.774 0 0 0 13.018 0H1.76C1.293 0 .845.182.515.507.185.832 0 1.272 0 1.73v11.077c0 .196.057.388.163.554.106.165.258.298.438.383a1.072 1.072 0 0 0 1.118-.13l2.503-1.99V13.5c0 .46.186.9.515 1.224.33.325.778.507 1.244.507h8.108l3.192 2.538a1.065 1.065 0 0 0 1.556-.253c.107-.166.163-.358.163-.554V5.885c0-.46-.185-.9-.515-1.224a1.774 1.774 0 0 0-1.244-.507Zm-15.129 6.48V2.076h10.556V9h-8.13c-.243 0-.478.081-.667.231l-1.759 1.402Zm14.778 4.153-1.76-1.402a1.067 1.067 0 0 0-.663-.23H6.333v-2.078h6.685c.467 0 .915-.182 1.244-.507.33-.324.516-.765.516-1.224V6.231h2.11v8.556Z"/></svg>