<svg xmlns="http://www.w3.org/2000/svg" width="21" height="20" fill="none"><path fill="#383838" d="M6.35 2.813a3.281 3.281 0 1 0 0 6.562 3.281 3.281 0 0 0 0-6.563Zm0 4.687a1.406 1.406 0 1 1 0-2.813 1.406 1.406 0 0 1 0 2.813Zm7.812 1.875a3.281 3.281 0 1 0 0-6.563 3.281 3.281 0 0 0 0 6.563Zm0-4.688a1.407 1.407 0 1 1 0 2.814 1.407 1.407 0 0 1 0-2.814ZM6.35 10.625a3.28 3.28 0 1 0 0 6.562 3.28 3.28 0 0 0 0-6.562Zm0 4.688a1.406 1.406 0 1 1 0-2.813 1.406 1.406 0 0 1 0 2.813Zm11.093-1.407a.938.938 0 0 1-.937.938H15.1v1.406a.938.938 0 0 1-1.875 0v-1.406h-1.407a.938.938 0 0 1 0-1.875h1.407v-1.406a.938.938 0 0 1 1.875 0v1.406h1.406a.937.937 0 0 1 .937.937Z"/></svg>