<svg xmlns="http://www.w3.org/2000/svg" width="25" height="24" fill="none"><g clip-path="url(#a)"><path fill="#3E3E3E" d="M22.077 12.926a2.661 2.661 0 0 0-2.309-.457l-3.387.774v-.118a3 3 0 0 0-3-3H8.688a3.35 3.35 0 0 0-2.386.988l-2.015 2.012H2.131A1.875 1.875 0 0 0 .256 15v3.75a1.875 1.875 0 0 0 1.875 1.875h9.375c.092 0 .184-.012.273-.034l6-1.5c.057-.014.113-.033.168-.056l3.639-1.55a2.682 2.682 0 0 0 .491-4.558ZM2.506 15.375H3.63v3H2.506v-3Zm18.157.057-3.516 1.5-5.78 1.443H5.881v-3.656l2.012-2.012a1.118 1.118 0 0 1 .795-.332h4.693a.75.75 0 0 1 0 1.5h-2.625a1.125 1.125 0 1 0 0 2.25h3c.085 0 .17-.01.252-.028l6.281-1.445.044-.011a.43.43 0 0 1 .488.632.429.429 0 0 1-.158.159ZM14.46 6.045a1.125 1.125 0 0 1 0-1.594l3-3a1.124 1.124 0 0 1 1.594 0l3 3a1.129 1.129 0 0 1-.366 1.838 1.127 1.127 0 0 1-1.228-.244l-1.08-1.077V9.75a1.125 1.125 0 0 1-2.25 0V4.968l-1.078 1.077a1.126 1.126 0 0 1-1.592 0Z"/></g><defs><clipPath id="a"><path fill="#fff" d="M.256 0h24v24h-24z"/></clipPath></defs></svg>