<svg xmlns="http://www.w3.org/2000/svg" width="21" height="20" fill="none"><path fill="#000" d="M16.25 4.05A8.443 8.443 0 0 0 1.818 10v4.375a2.187 2.187 0 0 0 2.188 2.187h1.25a2.187 2.187 0 0 0 2.187-2.187V11.25a2.188 2.188 0 0 0-2.187-2.188H3.759a6.566 6.566 0 0 1 6.497-5.625h.05a6.539 6.539 0 0 1 6.447 5.625h-1.497a2.187 2.187 0 0 0-2.188 2.188v3.125a2.187 2.187 0 0 0 2.188 2.187h1.531a1.562 1.562 0 0 1-1.531 1.25H10.88a.938.938 0 0 0 0 1.875h4.375a3.441 3.441 0 0 0 3.437-3.437V10a8.386 8.386 0 0 0-2.443-5.95ZM5.256 10.938a.313.313 0 0 1 .312.313v3.125a.313.313 0 0 1-.312.312h-1.25a.312.312 0 0 1-.313-.312v-3.438h1.563Zm9.687 3.438V11.25a.312.312 0 0 1 .313-.313h1.562v3.75h-1.562a.313.313 0 0 1-.313-.312Z"/></svg>