<svg xmlns="http://www.w3.org/2000/svg" width="128" height="44" fill="none"><path fill="#4671FD" d="M23.144 25.524v-1.2h11.785v1.2H23.144ZM26.466 26.404h-1.424c-.896 1.84-2.689 5.585-1.74 6.161.95.576 1.846-.693 2.057-1.44l1.107-4.72ZM28.68 26.484h-1.423c-.532 1.98-1.51 5.717-.47 6.1 1.041.381 1.681-1.038 1.747-1.812l.147-4.288ZM19.98 30.165l3.401-3.84.95.08c-.818 2-2.832 6.016-4.35 6.08-1.52.064-.634-1.52 0-2.32ZM31.78 26.434h1.423c.897 1.84 2.69 5.585 1.74 6.161-.949.576-1.845-.693-2.056-1.44l-1.107-4.72ZM29.565 26.514h1.424c.532 1.98 1.51 5.718.469 6.1-1.04.381-1.68-1.038-1.746-1.812l-.147-4.288ZM38.266 30.195l-3.402-3.84-.949.08c.818 2 2.832 6.016 4.35 6.08 1.52.064.633-1.52 0-2.32Z"/><path fill="#373737" d="m25.034.581.308.073c3.004.726 5.494 2.15 7.76 4.248l.39.348c2.143 2.02 3.757 5.084 4.356 7.973.01.374.012.747 0 1.12l.457-.104a672.243 672.243 0 0 1 1.196-.27 5.59 5.59 0 0 1 1.353-.106c-.093.809-.462 1.438-.84 2.14l-.432.815-.23.434c-.33.626-.65 1.255-.972 1.884-.723 1.412-1.452 2.811-2.272 4.169-.782-.407-1.51-.85-2.215-1.382a67.453 67.453 0 0 0-2.762-1.926l-1.4-.941-.277-.186c-.773-.52-1.545-1.04-2.314-1.566l-.315-.212c-.234-.161-.46-.334-.683-.508v-.32c.85-.19 1.653-.367 2.53-.32a79.826 79.826 0 0 0-1.107-1.28l-.242-.279c-2.01-2.174-4.9-3.618-7.667-4.522l-.577-.19c-4.363-1.275-9.245-.592-13.184 1.57-2.154 1.314-4.126 3.118-5.38 5.34-.206-.621-.042-1.029.148-1.63l.107-.341c.662-2.01 1.68-3.84 2.908-5.55l.278-.389a21.475 21.475 0 0 1 8.3-6.682c.252-.116.5-.236.75-.357C16.72-.073 21.094-.406 25.034.58Z"/><path fill="#4671FD" d="m53.51 9.863.433.145c2.51.914 4.838 2.886 6.053 5.296 1.098 2.368 1.334 4.78.515 7.29-.066.182-.131.364-.2.55l-.105.302c-.75 2.127-1.804 3.845-3.374 5.46l-.365.375c-2.964 2.87-6.839 3.712-10.822 3.642-.226-.005-.452-.01-.678-.017.2-.607.416-.685.94-1.03 2.607-1.882 4.043-4.955 4.597-8.091.254-3.542-.384-6.76-2.59-9.592-1.193-1.377-2.498-2.44-4.054-3.37.493-.572.95-.81 1.65-1.07l.534-.202c2.332-.777 5.19-.522 7.466.312Z"/><path fill="#373737" d="M16.017 11.303c-.495.51-1.003.988-1.542 1.45-2.224 2.026-3.783 4.877-4.027 7.92-.19 3.772.817 7.019 3.21 9.912.767.834 1.632 1.434 2.593 2.014.243.149.48.307.715.467v.32c-.338.155-.678.308-1.018.46l-.573.26c-2.476 1.013-5.757.92-8.217-.08-2.94-1.298-5.4-3.45-6.654-6.49-.898-2.604-.534-5.334.601-7.793 1.735-3.551 4.607-6.442 8.335-7.77l.566-.19.467-.164c1.788-.525 3.702-.358 5.544-.316Z"/><path fill="#4671FD" d="M60.47 27.625c.214.65.003 1.082-.218 1.7l-.128.364c-.75 2.032-1.785 3.93-3.134 5.618l-.21.263c-2.738 3.41-6.204 6.086-10.39 7.418l-.32.126c-2.163.832-4.435.88-6.719.884l-.354.002c-.342 0-.684-.001-1.025-.004l-.603-.004c-.745-.052-1.478-.216-2.21-.364V32.906c3.293.176 3.293.176 4.588.96 2.261 1.044 4.617 1.168 7.059 1.19l.334.007c2.122.031 4.018-.388 5.984-1.227l.337-.143c2.62-1.155 4.667-2.965 6.376-5.267.21-.268.421-.534.633-.8ZM39.925.001l.381.001c2.232.01 4.284.318 6.401 1.06l.436.149c.968.342 1.881.745 2.787 1.23l.392.21c2.101 1.156 3.896 2.763 5.56 4.491l.238.213c.947.878 1.59 1.963 2.282 3.048.203.31.419.607.644.9l-.158.32-.326-.305c-2.973-2.655-6.61-3.721-10.541-3.561a9.96 9.96 0 0 0-3.687.986l-.731.27a11.994 11.994 0 0 0-3.334 2.02l-.364.27-.475-.16c-.105-.32-.209-.64-.306-.962a16.61 16.61 0 0 0-2.541-4.639l-.39-.503c-.982-1.237-2.14-2.617-3.565-3.338v-.32c2.304-1.1 4.777-1.402 7.297-1.38Z"/><path fill="#373737" d="m2.096 32.266.415.39c3.287 2.84 6.804 3.654 11.023 3.422 1.995-.234 4.06-1.17 5.667-2.362 1.23-.862 2.47-.89 3.935-.81l.317.16v10.882c-7.371 0-12.538-1.498-17.817-6.61-3.54-3.68-3.54-3.68-3.54-5.072ZM25.509 34.507h7.752v9.281h-.95v-8.321h-5.853v8.481h-.949v-9.441ZM71 6.178h4.168l3.535 8.596h.163l3.535-8.596h4.168v13.884h-3.277v-8.529h-.116l-3.345 8.44h-2.094l-3.344-8.487h-.116v8.576H71V6.178ZM93.55 20.259c-1.093 0-2.036-.215-2.829-.644a4.46 4.46 0 0 1-1.822-1.851c-.421-.805-.632-1.76-.632-2.868 0-1.076.213-2.016.639-2.82a4.606 4.606 0 0 1 1.801-1.885c.776-.452 1.689-.678 2.74-.678.744 0 1.424.115 2.04.346.616.23 1.149.572 1.598 1.024.448.452.797 1.01 1.047 1.674.249.66.373 1.417.373 2.271v.827H89.43V13.73h5.983a1.863 1.863 0 0 0-.252-.942 1.707 1.707 0 0 0-.672-.644 1.949 1.949 0 0 0-.973-.238c-.371 0-.704.084-1 .251a1.883 1.883 0 0 0-.972 1.627v1.96c0 .424.084.797.252 1.118.168.317.406.563.714.74.308.175.675.264 1.102.264.294 0 .561-.041.802-.122.24-.082.446-.202.618-.36.173-.158.302-.352.388-.583l3.053.088a3.76 3.76 0 0 1-.837 1.783c-.426.502-.986.893-1.679 1.173-.694.276-1.496.414-2.407.414ZM100.203 20.062V9.649h3.23v1.898h.109c.19-.687.5-1.198.931-1.532a2.359 2.359 0 0 1 1.502-.509c.155 0 .313.012.476.034.163.018.315.048.456.088v2.882a3.196 3.196 0 0 0-.626-.13 5.549 5.549 0 0 0-.68-.046c-.394 0-.75.088-1.067.264-.313.172-.56.413-.741.725-.177.308-.265.67-.265 1.085v5.654h-3.325ZM112.594 20.259c-1.097 0-2.04-.224-2.828-.672a4.64 4.64 0 0 1-1.816-1.884c-.421-.81-.632-1.747-.632-2.814 0-1.07.211-2.009.632-2.813a4.583 4.583 0 0 1 1.816-1.885c.788-.452 1.731-.678 2.828-.678 1.097 0 2.037.226 2.821.678a4.528 4.528 0 0 1 1.816 1.885c.426.804.639 1.742.639 2.813 0 1.067-.213 2.005-.639 2.814a4.582 4.582 0 0 1-1.816 1.884c-.784.448-1.724.672-2.821.672Zm.02-2.502c.399 0 .737-.122 1.013-.366.277-.244.487-.583.633-1.017.149-.434.224-.935.224-1.505 0-.579-.075-1.085-.224-1.519-.146-.434-.356-.772-.633-1.016a1.475 1.475 0 0 0-1.013-.367c-.412 0-.761.122-1.047.367-.281.244-.496.582-.646 1.016-.145.434-.217.94-.217 1.519 0 .57.072 1.071.217 1.505.15.434.365.773.646 1.017.286.244.635.366 1.047.366ZM71 37.626V23.74h5.806c1.043 0 1.915.147 2.618.441.706.294 1.237.705 1.59 1.234.358.529.537 1.141.537 1.837a2.96 2.96 0 0 1-.333 1.417 2.926 2.926 0 0 1-.918 1.024c-.39.27-.84.46-1.352.57v.135c.562.027 1.08.178 1.556.454.48.276.866.66 1.156 1.152.29.489.435 1.067.435 1.736 0 .746-.19 1.412-.57 2-.382.583-.932 1.044-1.653 1.383-.72.334-1.595.502-2.624.502H71Zm3.365-2.705h2.08c.73 0 1.268-.138 1.612-.414.349-.276.523-.66.523-1.152 0-.357-.083-.665-.251-.922a1.618 1.618 0 0 0-.714-.604c-.308-.144-.678-.217-1.108-.217h-2.142v3.309Zm0-5.471h1.863c.367 0 .694-.061.98-.183a1.5 1.5 0 0 0 .665-.53c.164-.23.245-.508.245-.833 0-.466-.165-.832-.496-1.098-.331-.267-.778-.4-1.34-.4h-1.917v3.044ZM86.657 37.802c-.666 0-1.258-.11-1.774-.332a2.761 2.761 0 0 1-1.217-1.017c-.295-.457-.442-1.028-.442-1.715 0-.579.102-1.067.306-1.465a2.61 2.61 0 0 1 .843-.97c.358-.248.77-.435 1.237-.562.467-.131.966-.22 1.496-.264.594-.055 1.072-.111 1.434-.17.363-.063.626-.151.789-.264a.57.57 0 0 0 .252-.495v-.034c0-.348-.12-.617-.36-.807-.241-.19-.565-.285-.973-.285-.44 0-.793.095-1.06.285-.268.19-.438.452-.51.787l-3.067-.109a3.61 3.61 0 0 1 .7-1.695c.381-.501.903-.895 1.564-1.18.667-.289 1.467-.433 2.4-.433.666 0 1.28.079 1.843.237.562.154 1.051.38 1.468.678.417.294.739.655.966 1.085.23.43.346.92.346 1.47v7.079h-3.127v-1.451h-.082c-.185.352-.423.65-.713.895a2.848 2.848 0 0 1-1.013.549c-.386.122-.82.183-1.306.183Zm1.027-2.17c.358 0 .68-.072.965-.216.29-.145.521-.344.694-.597.172-.258.258-.556.258-.895v-.99c-.095.05-.21.095-.347.136-.131.04-.276.079-.435.115a7.771 7.771 0 0 1-.49.095c-.167.027-.328.052-.482.075-.313.05-.58.126-.802.23-.218.104-.386.24-.503.407a.994.994 0 0 0-.17.583c0 .343.122.606.367.786.25.181.564.272.945.272ZM94.958 37.626v-1.892l4.84-5.878v-.067h-4.67v-2.577h8.634v2.075l-4.487 5.695v.068h4.651v2.576h-8.968ZM109.018 37.802c-.666 0-1.258-.11-1.775-.332a2.767 2.767 0 0 1-1.217-1.017c-.294-.457-.441-1.028-.441-1.715 0-.579.101-1.067.305-1.465a2.61 2.61 0 0 1 .843-.97 3.984 3.984 0 0 1 1.238-.562 8.05 8.05 0 0 1 1.496-.264c.593-.055 1.071-.111 1.434-.17.363-.063.625-.151.789-.264a.57.57 0 0 0 .251-.495v-.034c0-.348-.12-.617-.36-.807-.24-.19-.564-.285-.972-.285-.44 0-.793.095-1.061.285-.267.19-.437.452-.51.787l-3.066-.109a3.615 3.615 0 0 1 .7-1.695c.381-.501.902-.895 1.564-1.18.666-.289 1.466-.433 2.4-.433.666 0 1.28.079 1.842.237.562.154 1.052.38 1.469.678.417.294.739.655.965 1.085.231.43.347.92.347 1.47v7.079h-3.127v-1.451h-.082c-.186.352-.424.65-.714.895a2.842 2.842 0 0 1-1.013.549c-.385.122-.82.183-1.305.183Zm1.026-2.17c.358 0 .68-.072.966-.216a1.78 1.78 0 0 0 .693-.597c.172-.258.259-.556.259-.895v-.99c-.096.05-.211.095-.347.136-.132.04-.277.079-.435.115a7.801 7.801 0 0 1-.49.095c-.167.027-.328.052-.482.075-.313.05-.581.126-.803.23a1.27 1.27 0 0 0-.503.407.997.997 0 0 0-.17.583c0 .343.123.606.367.786.25.181.565.272.945.272ZM117.292 37.626V27.212h3.229v1.899h.109c.19-.687.501-1.198.931-1.533a2.362 2.362 0 0 1 1.503-.508c.154 0 .312.011.476.034.163.018.315.047.455.088v2.881a3.17 3.17 0 0 0-.625-.128 5.557 5.557 0 0 0-.68-.048c-.395 0-.75.088-1.068.265a1.913 1.913 0 0 0-.741.725 2.146 2.146 0 0 0-.265 1.085v5.654h-3.324ZM126.023 37.822c-.49 0-.909-.172-1.258-.515a1.677 1.677 0 0 1-.51-1.247 1.64 1.64 0 0 1 .51-1.227 1.729 1.729 0 0 1 1.258-.516c.462 0 .87.172 1.224.516.358.339.539.748.543 1.227-.004.325-.09.621-.258.888-.163.266-.378.479-.646.637-.263.158-.55.237-.863.237Z"/></svg>