<svg xmlns="http://www.w3.org/2000/svg" width="21" height="20" fill="none"><path fill="#383838" d="M17.88 4.894 11.007 1.13a1.556 1.556 0 0 0-1.5 0L2.63 4.894a1.563 1.563 0 0 0-.813 1.37v7.47a1.563 1.563 0 0 0 .813 1.372l6.875 3.763a1.554 1.554 0 0 0 1.5 0l6.875-3.763a1.563 1.563 0 0 0 .812-1.371v-7.47a1.564 1.564 0 0 0-.812-1.371Zm-7.624-2.037 5.625 3.08-1.674.917-5.625-3.08 1.674-.917Zm0 6.158L4.63 5.937l1.997-1.093 5.625 3.078-1.997 1.093ZM3.693 7.562l5.625 3.078v5.99l-5.625-3.08V7.562Zm7.5 9.067v-5.99l1.875-1.025v2.26a.937.937 0 1 0 1.875 0V8.588l1.875-1.025v5.988l-5.625 3.08Z"/></svg>