<svg xmlns="http://www.w3.org/2000/svg" width="21" height="20" fill="none"><path fill="#383838" d="M18.127 7.816c-.275-.286-.559-.582-.652-.807-.082-.2-.089-.611-.094-.974-.012-.781-.027-1.753-.717-2.443-.691-.69-1.662-.703-2.443-.717-.363-.005-.774-.012-.975-.095-.224-.092-.52-.376-.806-.651-.554-.53-1.243-1.192-2.184-1.192-.942 0-1.63.661-2.184 1.192-.286.275-.583.558-.807.651-.2.083-.611.09-.974.095-.781.016-1.753.027-2.441.719-.689.692-.704 1.66-.72 2.441-.005.363-.01.774-.094.974-.093.225-.376.52-.651.807-.53.554-1.192 1.247-1.192 2.184 0 .938.661 1.63 1.192 2.188.275.286.558.582.651.806.083.2.09.612.095.975.012.781.026 1.753.717 2.443.69.69 1.662.703 2.443.717.363.005.773.012.974.094.224.093.52.377.807.652.553.527 1.246 1.188 2.184 1.188.937 0 1.63-.661 2.184-1.192.286-.275.582-.558.806-.651.2-.083.612-.09.975-.095.781-.012 1.753-.027 2.443-.717.69-.69.703-1.662.717-2.443.005-.363.012-.774.094-.974.093-.225.377-.52.652-.807.53-.553 1.191-1.243 1.191-2.184 0-.941-.66-1.63-1.191-2.184Zm-1.353 3.07c-.377.39-.803.837-1.03 1.387-.221.532-.23 1.107-.235 1.664-.006.418-.015.993-.168 1.145-.153.152-.726.162-1.145.168-.557.009-1.132.017-1.664.234-.546.229-.994.655-1.387 1.032-.281.268-.702.672-.89.672-.187 0-.607-.404-.885-.67-.39-.377-.838-.803-1.388-1.031-.53-.22-1.107-.228-1.663-.235-.419-.006-.993-.014-1.145-.168-.153-.153-.162-.726-.168-1.145-.009-.557-.017-1.132-.235-1.663-.227-.547-.653-.995-1.03-1.388-.27-.28-.673-.7-.673-.888 0-.188.403-.608.67-.886.376-.39.803-.837 1.03-1.387.22-.532.23-1.107.235-1.664.01-.418.018-.993.175-1.141.156-.149.726-.162 1.145-.168.557-.009 1.132-.017 1.663-.234.547-.229.995-.655 1.388-1.032.274-.272.694-.675.882-.675.187 0 .608.403.886.669.39.377.837.803 1.387 1.031.531.22 1.107.228 1.664.235.418.006.992.014 1.145.168.152.153.162.726.168 1.145.008.557.017 1.132.234 1.663.228.547.654.996 1.03 1.388.267.278.67.698.67.886 0 .187-.4.61-.666.888ZM6.506 7.5a1.25 1.25 0 1 1 2.5 0 1.25 1.25 0 0 1-2.5 0Zm7.5 5a1.25 1.25 0 1 1-2.502 0 1.25 1.25 0 0 1 2.502 0Zm.038-6.288a.937.937 0 0 1 0 1.328l-6.25 6.25a.939.939 0 1 1-1.328-1.328l6.25-6.25a.937.937 0 0 1 1.328 0Z"/></svg>