<svg xmlns="http://www.w3.org/2000/svg" width="24" height="24" fill="none"><path fill="#fff" d="m21 14.512-4.415-1.979-.017-.008a1.869 1.869 0 0 0-1.886.243l-2.091 1.782c-1.22-.661-2.478-1.91-3.14-3.114l1.787-2.124c.029-.035.055-.07.08-.108a1.874 1.874 0 0 0 .148-1.782L9.488 3a1.88 1.88 0 0 0-1.949-1.111 5.65 5.65 0 0 0-4.914 5.61c0 7.651 6.224 13.876 13.875 13.876a5.65 5.65 0 0 0 5.61-4.915A1.88 1.88 0 0 0 21 14.512Zm-4.5 4.613A11.639 11.639 0 0 1 4.875 7.5a3.402 3.402 0 0 1 2.67-3.332l1.764 3.937-1.796 2.14c-.029.034-.056.07-.08.108a1.876 1.876 0 0 0-.12 1.842c.883 1.807 2.702 3.615 4.529 4.5a1.875 1.875 0 0 0 1.845-.136c.037-.025.072-.051.105-.08l2.102-1.788 3.938 1.764a3.403 3.403 0 0 1-3.332 2.67Z"/></svg>